<svg width="18" height="18" viewBox="0 0 18 18" fill="none" xmlns="http://www.w3.org/2000/svg">
<path d="M7.21155 16C7.06624 15.9996 6.92257 15.971 6.78948 15.9162C6.65638 15.8613 6.53671 15.7813 6.4379 15.6812L1.28727 10.53C1.09473 10.3371 0.991593 10.0802 1.00054 9.81578C1.00948 9.55138 1.12978 9.30116 1.33496 9.12014C1.54015 8.93913 1.81342 8.84216 2.09465 8.85057C2.37588 8.85898 2.64204 8.97208 2.83458 9.16498L7.20095 13.539L16.1139 4.37249C16.2043 4.2666 16.3168 4.17922 16.4445 4.1157C16.5722 4.05218 16.7123 4.01387 16.8564 4.00312C17.0004 3.99238 17.1452 4.00942 17.2819 4.05321C17.4187 4.097 17.5444 4.16661 17.6515 4.25776C17.7586 4.34891 17.8447 4.45968 17.9046 4.58327C17.9645 4.70685 17.9969 4.84064 17.9998 4.97643C18.0027 5.11221 17.976 5.24711 17.9214 5.37285C17.8668 5.49859 17.7855 5.61251 17.6824 5.70762L7.9958 15.6712C7.89792 15.7732 7.77867 15.855 7.64553 15.9116C7.51239 15.9682 7.36825 15.9983 7.22215 16H7.21155Z" fill="#62298F"/>
</svg>
