<svg width="18" height="18" viewBox="0 0 18 18" fill="none" xmlns="http://www.w3.org/2000/svg">
<path d="M5.15497 12.8468C3.77122 11.8643 2.67622 10.5863 2.05747 9.77925C1.88445 9.55648 1.79053 9.28244 1.79053 9.00038C1.79053 8.71831 1.88445 8.44427 2.05747 8.2215C3.17722 6.75975 5.86372 3.75 9.00022 3.75C10.4072 3.75 11.7227 4.35525 12.8477 5.1555" stroke="#62298F" stroke-width="1.5" stroke-linecap="round" stroke-linejoin="round"/>
<path d="M10.5977 7.41537C10.3895 7.20362 10.1413 7.0352 9.86761 6.91984C9.59392 6.80447 9.30009 6.74443 9.00308 6.74318C8.70607 6.74194 8.41174 6.79951 8.13709 6.91259C7.86244 7.02566 7.6129 7.19199 7.40285 7.40199C7.1928 7.61198 7.02641 7.86149 6.91328 8.13612C6.80014 8.41074 6.7425 8.70505 6.74367 9.00206C6.74484 9.29907 6.80481 9.59292 6.92012 9.86664C7.03542 10.1404 7.20378 10.3885 7.41548 10.5969" stroke="#62298F" stroke-width="1.5" stroke-linecap="round" stroke-linejoin="round"/>
<path d="M3 15L15 3" stroke="#62298F" stroke-width="1.5" stroke-linecap="round" stroke-linejoin="round"/>
<path d="M7.5 14.028C7.9869 14.1729 8.49199 14.2477 9 14.25C12.1365 14.25 14.823 11.2403 15.9427 9.7785C16.1157 9.55553 16.2095 9.28132 16.2094 8.99912C16.2093 8.71692 16.1152 8.4428 15.942 8.22C15.5485 7.70662 15.1263 7.21584 14.6775 6.75" stroke="#62298F" stroke-width="1.5" stroke-linecap="round" stroke-linejoin="round"/>
</svg>
